<svg width="8" height="17" fill="none" xmlns="http://www.w3.org/2000/svg"><path d="M7.6987.7326L5.78.7292C3.6242.7292 2.231 2.2748 2.231 4.667v1.8155H.3017C.135 6.4824 0 6.6285 0 6.8088v2.6304c0 .1803.1352.3263.3017.3263H2.231v6.6375c0 .1803.135.3262.3017.3262H5.05c.1667 0 .3018-.1461.3018-.3262V9.7655h2.2558c.1667 0 .3017-.146.3017-.3262L7.91 6.8087a.3407.3407 0 00-.0884-.2307.2907.2907 0 00-.2135-.0957H5.3517v-1.539c0-.7398.163-1.1153 1.0541-1.1153l1.2926-.0005c.1666 0 .3016-.1461.3016-.3262V1.0588c0-.18-.1349-.3259-.3013-.3262z" fill="#fff"/></svg>