<svg width="18" height="19" fill="none" xmlns="http://www.w3.org/2000/svg"><path d="M12.375 18.7292h-6.75c-3.1061 0-5.625-2.5188-5.625-5.625v-6.75C0 3.2483 2.5189.7293 5.625.7293h6.75c3.1061 0 5.625 2.519 5.625 5.625v6.75c0 3.1062-2.5189 5.625-5.625 5.625zm3.9375-12.375c0-2.1712-1.7663-3.9374-3.9375-3.9374h-6.75c-2.1713 0-3.9375 1.7662-3.9375 3.9375v6.7499c0 2.1713 1.7662 3.9375 3.9375 3.9375h6.75c2.1712 0 3.9375-1.7662 3.9375-3.9375v-6.75z" fill="#fff"/><path d="M9 14.2292c-2.4851 0-4.5-2.0148-4.5-4.5 0-2.485 2.0149-4.5 4.5-4.5s4.5 2.015 4.5 4.5c0 2.4852-2.0149 4.5-4.5 4.5zm0-7.3125c-1.5503 0-2.8125 1.2623-2.8125 2.8126 0 1.5513 1.2622 2.8124 2.8125 2.8124s2.8125-1.2611 2.8125-2.8125c0-1.5502-1.2622-2.8125-2.8125-2.8125zM13.8375 13.967a.5997.5997 0 11-.0001 1.1993.5997.5997 0 01.0001-1.1993z" fill="#fff"/></svg>