<svg width="16" height="19" fill="none" xmlns="http://www.w3.org/2000/svg"><path d="M13.2389 2.4292C11.9999 1.2398 10.2852.5847 8.4108.5847c-2.8633 0-4.6243 1.1737-5.5975 2.1583C1.6141 3.9563.9263 5.5674.9263 7.1632c0 2.0037.8381 3.5416 2.2416 4.1137.0942.0386.189.0581.282.0581.296 0 .5307-.1938.612-.5045.0473-.1783.157-.6181.2048-.8091.1022-.377.0196-.5584-.2032-.821-.406-.4803-.595-1.0482-.595-1.7874 0-2.1955 1.6349-4.529 4.665-4.529 2.4041 0 3.8976 1.3665 3.8976 3.566 0 1.3881-.299 2.6736-.8421 3.6198-.3773.6575-1.0409 1.4412-2.0596 1.4412-.4405 0-.8362-.1809-1.086-.4964-.2358-.2982-.3135-.6835-.2187-1.085.1072-.4536.2533-.9268.3948-1.3843.2579-.8355.5017-1.6247.5017-2.2543 0-1.077-.662-1.8005-1.6473-1.8005-1.2521 0-2.233 1.2717-2.233 2.8953 0 .7962.2115 1.3917.3073 1.6204-.1577.6683-1.0952 4.6417-1.273 5.3909-.1028.4374-.7222 3.892.303 4.1675 1.1518.3095 2.1814-3.0551 2.2862-3.4353.085-.3092.3822-1.4783.5643-2.1971.556.5357 1.4514.8977 2.3225.8977 1.6424 0 3.1193-.739 4.1589-2.0808 1.0083-1.3015 1.5636-3.1155 1.5636-5.1076 0-1.5574-.6688-3.0927-1.8348-4.2123z" fill="#fff"/></svg>