<svg width="14" height="14" fill="none" xmlns="http://www.w3.org/2000/svg"><path d="M13.771 12.7518l-3.3321-3.4655a5.634 5.634 0 001.3262-3.6338C11.7651 2.5358 9.2293 0 6.1126 0 2.9958 0 .46 2.5358.46 5.6525s2.5357 5.6525 5.6525 5.6525c1.17 0 2.285-.3529 3.2384-1.0229l3.3573 3.4918a.7317.7317 0 00.5313.2261.7336.7336 0 00.511-.2057c.2929-.2819.3023-.7493.0204-1.0425zM6.1126 1.4746c2.3037 0 4.1779 1.8741 4.1779 4.1779 0 2.3037-1.8742 4.178-4.178 4.178-2.3037 0-4.1778-1.8743-4.1778-4.178 0-2.3038 1.8741-4.178 4.1779-4.178z" fill="#000"/></svg>