<svg width="18" height="15" fill="none" xmlns="http://www.w3.org/2000/svg"><path d="M18.0001 2.004a7.3735 7.3735 0 01-2.1202.5816c.7626-.4567 1.3464-1.181 1.6231-2.0415-.7154.423-1.505.73-2.3464.8965a3.6819 3.6819 0 00-2.695-1.1664c-2.0392 0-3.6927 1.6534-3.6927 3.6915 0 .289.0327.5714.0957.8414C5.7962 4.653 3.0753 3.1829 1.2543.949.9359 1.4933.7549 2.1277.7549 2.8048c0 1.2812.6523 2.4116 1.6422 3.073a3.6927 3.6927 0 01-1.6726-.4635v.0461c0 1.7885 1.2733 3.281 2.9616 3.6208a3.74 3.74 0 01-.973.1293 3.544 3.544 0 01-.695-.0686c.47 1.4678 1.8333 2.5353 3.4485 2.5645-1.2631.9898-2.8558 1.5781-4.5857 1.5781-.2981 0-.5917-.018-.8807-.0506 1.6343 1.0494 3.5745 1.6613 5.6599 1.6613 6.7926 0 10.5055-5.6262 10.5055-10.5055l-.0124-.478a7.3733 7.3733 0 001.8469-1.9077z" fill="#fff"/></svg>