<svg width="20" height="20" fill="none" xmlns="http://www.w3.org/2000/svg"><g clip-path="url(#clip0)"><path d="M19.6549 16.5518H.3446a.345.345 0 01-.3448-.3449V3.7931a.3449.3449 0 01.3448-.3448h19.3103a.345.345 0 01.3449.3448V16.207a.345.345 0 01-.3449.3449z" fill="#F5F5F5"/><path d="M19.9997 4.4563h-20v-.6631a.3449.3449 0 01.3449-.3449h19.3103a.345.345 0 01.3449.3448l-.0001.6632zM19.9997 7.4801h-20v1.008h20V7.48zM19.9997 5.4641h-20v1.008h20V5.464zM19.9997 10.504H.3446a.3449.3449 0 01-.3448-.3448V9.496h19.9999v1.008zM19.9997 13.5282h-20v1.008h20v-1.008zM19.6549 16.5517H.3446a.3449.3449 0 01-.3448-.3448v-.6631h19.9999v.6631a.3448.3448 0 01-.3448.3448zM19.9997 11.5121h-20v1.008h20v-1.008z" fill="#FF4B55"/><path d="M8.9652 3.4483H.3446a.3448.3448 0 00-.3448.3448v6.366a.345.345 0 00.3448.3449h8.6207a.345.345 0 00.3448-.3449v-6.366a.345.345 0 00-.3449-.3448z" fill="#41479B"/><path d="M.968 4.2398l.0764.2289.2413.0018a.0325.0325 0 01.019.0587l-.194.1433.0727.23a.0325.0325 0 01-.0499.0363l-.1963-.1402-.1962.1403a.0325.0325 0 01-.05-.0363l.0728-.23-.194-.1434a.0325.0325 0 01.019-.0587l.2413-.0018.0763-.2289a.0325.0325 0 01.0617 0zM.968 5.4372l.0764.2289.2413.0018a.0325.0325 0 01.019.0587l-.194.1433.0727.23a.0325.0325 0 01-.0499.0363L.9372 5.996l-.1962.1403A.0325.0325 0 01.691 6.1l.0728-.23-.194-.1434a.0325.0325 0 01.019-.0586l.2413-.0019.0763-.2289a.0325.0325 0 01.0617 0zM.968 6.6346l.0764.229.2413.0018a.0325.0325 0 01.019.0587l-.194.1433.0727.23a.0325.0325 0 01-.0499.0363l-.1963-.1403-.1962.1403a.0325.0325 0 01-.05-.0362l.0728-.23-.194-.1434a.0325.0325 0 01.019-.0587l.2413-.0018.0763-.229a.0325.0325 0 01.0617 0zM.968 7.832l.0764.229.2413.0018a.0325.0325 0 01.019.0587l-.194.1433.0727.23a.0325.0325 0 01-.0499.0363l-.1963-.1403-.1962.1403a.0325.0325 0 01-.05-.0362l.0728-.23-.194-.1434a.0325.0325 0 01.019-.0587l.2413-.0018.0763-.229a.0325.0325 0 01.0617 0zM.968 9.0295l.0764.2289.2413.0018a.0325.0325 0 01.019.0587l-.194.1433.0727.23a.0325.0325 0 01-.0499.0363l-.1963-.1402-.1962.1403a.0325.0325 0 01-.05-.0363l.0728-.23-.194-.1434a.0325.0325 0 01.019-.0587l.2413-.0018.0763-.2289a.0325.0325 0 01.0617 0zM1.8975 4.8268l.0763.229.2413.0018a.0325.0325 0 01.019.0587l-.194.1433.0728.23a.0325.0325 0 01-.05.0363l-.1962-.1403-.1963.1403a.0325.0325 0 01-.05-.0363l.0729-.23-.1941-.1433a.0325.0325 0 01.019-.0587l.2413-.0019.0763-.2289a.0325.0325 0 01.0617 0zM1.8975 6.0243l.0763.229.2413.0017a.0325.0325 0 01.019.0587l-.194.1434.0728.23a.0325.0325 0 01-.05.0363l-.1962-.1403-.1963.1403a.0325.0325 0 01-.05-.0363l.0729-.23-.1941-.1434a.0325.0325 0 01.019-.0587l.2413-.0018.0763-.2289a.0325.0325 0 01.0617 0zM1.8975 7.2217l.0763.2289.2413.0018a.0325.0325 0 01.019.0587l-.194.1434.0728.23a.0325.0325 0 01-.05.0363l-.1962-.1403-.1963.1403a.0325.0325 0 01-.05-.0363l.0729-.23-.1941-.1434a.0325.0325 0 01.019-.0587l.2413-.0018.0763-.2289a.0325.0325 0 01.0617 0zM1.8975 8.4191l.0763.229.2413.0018a.0325.0325 0 01.019.0586l-.194.1434.0728.23a.0325.0325 0 01-.05.0363l-.1962-.1403-.1963.1403a.0325.0325 0 01-.05-.0363l.0729-.23-.1941-.1434a.0325.0325 0 01.019-.0586l.2413-.0019.0763-.2289a.0325.0325 0 01.0617 0zM2.8269 4.2398l.0763.2289.2413.0018a.0325.0325 0 01.019.0587l-.194.1433.0728.23a.0325.0325 0 01-.05.0363l-.1962-.1403-.1963.1403a.0325.0325 0 01-.05-.0362l.0729-.23-.1941-.1434a.0325.0325 0 01.019-.0587l.2413-.0018.0764-.229a.0325.0325 0 01.0616 0zM2.8269 5.4372l.0763.2289.2413.0018a.0325.0325 0 01.019.0587l-.194.1434.0728.23a.0325.0325 0 01-.05.0363l-.1962-.1404-.1963.1404a.0325.0325 0 01-.05-.0363l.0729-.23-.1941-.1434a.0325.0325 0 01.019-.0587l.2413-.0018.0764-.229a.0325.0325 0 01.0616 0zM2.8269 6.6346l.0763.229.2413.0018a.0325.0325 0 01.019.0587l-.194.1433.0728.23a.0325.0325 0 01-.05.0363l-.1962-.1403-.1963.1403a.0325.0325 0 01-.05-.0362l.0729-.23-.1941-.1434a.0325.0325 0 01.019-.0587l.2413-.0019.0764-.2289a.0325.0325 0 01.0616 0zM2.8269 7.832l.0763.229.2413.0018a.0325.0325 0 01.019.0587l-.194.1433.0728.23a.0325.0325 0 01-.05.0363l-.1962-.1403-.1963.1403a.0325.0325 0 01-.05-.0362l.0729-.23-.1941-.1434a.0325.0325 0 01.019-.0587l.2413-.0018.0764-.229a.0325.0325 0 01.0616 0zM2.8269 9.0295l.0763.2289.2413.0018a.0325.0325 0 01.019.0587l-.194.1433.0728.23a.0325.0325 0 01-.05.0363l-.1962-.1403-.1963.1403a.0325.0325 0 01-.05-.0362l.0729-.23-.1941-.1434a.0325.0325 0 01.019-.0587l.2413-.0018.0764-.229a.0325.0325 0 01.0616 0zM3.7563 4.8268l.0764.229.2413.0018a.0325.0325 0 01.019.0587l-.194.1433.0727.23a.0325.0325 0 01-.0499.0363l-.1963-.1403-.1963.1403a.0325.0325 0 01-.0499-.0363l.0728-.23-.194-.1433a.0325.0325 0 01.019-.0587l.2413-.0019.0763-.2289a.0325.0325 0 01.0616 0zM3.7563 6.0243l.0764.229.2413.0017a.0325.0325 0 01.019.0587l-.194.1434.0727.23a.0325.0325 0 01-.0499.0363l-.1963-.1403-.1963.1403a.0325.0325 0 01-.0499-.0363l.0728-.23-.194-.1434a.0325.0325 0 01.019-.0587l.2413-.0018.0763-.2289a.0325.0325 0 01.0616 0zM3.7563 7.2217l.0764.2289.2413.0018a.0325.0325 0 01.019.0587l-.194.1434.0727.23a.0325.0325 0 01-.0499.0363l-.1963-.1403-.1963.1403a.0325.0325 0 01-.0499-.0363l.0728-.23-.194-.1434a.0325.0325 0 01.019-.0587l.2413-.0018.0763-.2289a.0325.0325 0 01.0616 0zM3.7563 8.4191l.0764.229.2413.0018a.0325.0325 0 01.019.0586l-.194.1434.0727.23a.0325.0325 0 01-.0499.0363l-.1963-.1403-.1963.1403a.0325.0325 0 01-.0499-.0363l.0728-.23-.194-.1434a.0325.0325 0 01.019-.0586l.2413-.0019.0763-.2289a.0325.0325 0 01.0616 0zM4.6858 4.2398l.0763.2289.2413.0018a.0325.0325 0 01.019.0587l-.194.1433.0728.23a.0325.0325 0 01-.05.0363l-.1963-.1403-.1963.1403a.0325.0325 0 01-.05-.0362l.073-.23-.1942-.1434a.0325.0325 0 01.019-.0587l.2414-.0018.0763-.229a.0325.0325 0 01.0617 0zM4.6858 5.4372l.0763.2289.2413.0018a.0325.0325 0 01.019.0587l-.194.1434.0728.23a.0325.0325 0 01-.05.0363l-.1963-.1404-.1963.1404a.0325.0325 0 01-.05-.0363l.073-.23-.1942-.1434a.0325.0325 0 01.019-.0587l.2414-.0018.0763-.229a.0325.0325 0 01.0617 0zM4.6858 6.6346l.0763.229.2413.0018a.0325.0325 0 01.019.0587l-.194.1433.0728.23a.0325.0325 0 01-.05.0363l-.1963-.1403-.1963.1403a.0325.0325 0 01-.05-.0362l.073-.23-.1942-.1434a.0325.0325 0 01.019-.0587l.2414-.0019.0763-.2289a.0325.0325 0 01.0617 0zM4.6858 7.832l.0763.229.2413.0018a.0325.0325 0 01.019.0587l-.194.1433.0728.23a.0325.0325 0 01-.05.0363l-.1963-.1403-.1963.1403a.0325.0325 0 01-.05-.0362l.073-.23-.1942-.1434a.0325.0325 0 01.019-.0587l.2414-.0018.0763-.229a.0325.0325 0 01.0617 0zM4.6858 9.0295l.0763.2289.2413.0018a.0325.0325 0 01.019.0587l-.194.1433.0728.23a.0325.0325 0 01-.05.0363l-.1963-.1403-.1963.1403a.0325.0325 0 01-.05-.0362l.073-.23-.1942-.1434a.0325.0325 0 01.019-.0587l.2414-.0018.0763-.229a.0325.0325 0 01.0617 0zM5.6152 4.8268l.0763.229.2413.0018a.0325.0325 0 01.019.0587l-.194.1433.0728.23a.0325.0325 0 01-.05.0363l-.1963-.1403-.1962.1403a.0325.0325 0 01-.05-.0363l.0728-.23-.194-.1433a.0325.0325 0 01.019-.0587l.2413-.0019.0763-.2289a.0325.0325 0 01.0617 0zM5.6152 6.0243l.0763.229.2413.0017a.0325.0325 0 01.019.0587l-.194.1434.0728.23a.0325.0325 0 01-.05.0363l-.1963-.1403-.1962.1403a.0325.0325 0 01-.05-.0363l.0728-.23-.194-.1434a.0325.0325 0 01.019-.0587l.2413-.0018.0763-.2289a.0325.0325 0 01.0617 0zM5.6152 7.2217l.0763.2289.2413.0018a.0325.0325 0 01.019.0587l-.194.1434.0728.23a.0325.0325 0 01-.05.0363l-.1963-.1403-.1962.1403a.0325.0325 0 01-.05-.0363l.0728-.23-.194-.1434a.0325.0325 0 01.019-.0587l.2413-.0018.0763-.2289a.0325.0325 0 01.0617 0zM5.6152 8.4191l.0763.229.2413.0018a.0325.0325 0 01.019.0586l-.194.1434.0728.23a.0325.0325 0 01-.05.0363l-.1963-.1403-.1962.1403a.0325.0325 0 01-.05-.0363l.0728-.23-.194-.1434a.0325.0325 0 01.019-.0586l.2413-.0019.0763-.2289a.0325.0325 0 01.0617 0zM6.5446 4.2398l.0763.2289.2413.0018a.0325.0325 0 01.0191.0587l-.1941.1433.0728.23a.0325.0325 0 01-.05.0363l-.1962-.1403-.1963.1403a.0325.0325 0 01-.05-.0362l.0729-.23-.1941-.1434a.0325.0325 0 01.019-.0587l.2413-.0018.0764-.229a.0325.0325 0 01.0616 0zM6.5446 5.4372l.0763.2289.2413.0018a.0325.0325 0 01.0191.0587l-.1941.1434.0728.23a.0325.0325 0 01-.05.0363l-.1962-.1404-.1963.1404a.0325.0325 0 01-.05-.0363l.0729-.23-.1941-.1434a.0325.0325 0 01.019-.0587l.2413-.0018.0764-.229a.0325.0325 0 01.0616 0zM6.5446 6.6346l.0763.229.2413.0018a.0325.0325 0 01.0191.0587l-.1941.1433.0728.23a.0325.0325 0 01-.05.0363l-.1962-.1403-.1963.1403a.0325.0325 0 01-.05-.0362l.0729-.23-.1941-.1434a.0325.0325 0 01.019-.0587l.2413-.0019.0764-.2289a.0325.0325 0 01.0616 0zM6.5446 7.832l.0763.229.2413.0018a.0325.0325 0 01.0191.0587l-.1941.1433.0728.23a.0325.0325 0 01-.05.0363l-.1962-.1403-.1963.1403a.0325.0325 0 01-.05-.0362l.0729-.23-.1941-.1434a.0325.0325 0 01.019-.0587l.2413-.0018.0764-.229a.0325.0325 0 01.0616 0zM6.5446 9.0295l.0763.2289.2413.0018a.0325.0325 0 01.0191.0587l-.1941.1433.0728.23a.0325.0325 0 01-.05.0363l-.1962-.1403-.1963.1403a.0325.0325 0 01-.05-.0362l.0729-.23-.1941-.1434a.0325.0325 0 01.019-.0587l.2413-.0018.0764-.229a.0325.0325 0 01.0616 0zM7.474 4.8268l.0764.229.2412.0018a.0325.0325 0 01.0191.0587l-.194.1433.0727.23a.0325.0325 0 01-.0499.0363l-.1963-.1403-.1963.1403a.0325.0325 0 01-.0499-.0363l.0728-.23-.194-.1433a.0325.0325 0 01.019-.0587l.2413-.0019.0763-.2289a.0325.0325 0 01.0616 0zM7.474 6.0243l.0764.229.2412.0017a.0325.0325 0 01.0191.0587l-.194.1434.0727.23a.0325.0325 0 01-.0499.0363l-.1963-.1403-.1963.1403a.0325.0325 0 01-.0499-.0363l.0728-.23-.194-.1434a.0325.0325 0 01.019-.0587l.2413-.0018.0763-.2289a.0325.0325 0 01.0616 0zM7.474 7.2217l.0764.2289.2412.0018a.0325.0325 0 01.0191.0587l-.194.1434.0727.23a.0325.0325 0 01-.0499.0363l-.1963-.1403-.1963.1403a.0325.0325 0 01-.0499-.0363l.0728-.23-.194-.1434a.0325.0325 0 01.019-.0587l.2413-.0018.0763-.2289a.0325.0325 0 01.0616 0zM7.474 8.4191l.0764.229.2412.0018a.0325.0325 0 01.0191.0586l-.194.1434.0727.23a.0325.0325 0 01-.0499.0363l-.1963-.1403-.1963.1403a.0325.0325 0 01-.0499-.0363l.0728-.23-.194-.1434a.0325.0325 0 01.019-.0586l.2413-.0019.0763-.2289a.0325.0325 0 01.0616 0zM8.4035 4.2398l.0763.2289.2413.0018a.0325.0325 0 01.019.0587l-.194.1433.0728.23a.0325.0325 0 01-.05.0363l-.1962-.1403-.1963.1403a.0325.0325 0 01-.05-.0362l.0728-.23-.194-.1434a.0325.0325 0 01.019-.0587l.2413-.0018.0763-.229a.0325.0325 0 01.0617 0zM8.4035 5.4372l.0763.2289.2413.0018a.0325.0325 0 01.019.0587l-.194.1434.0728.23a.0325.0325 0 01-.05.0363l-.1962-.1404-.1963.1404a.0325.0325 0 01-.05-.0363l.0728-.23-.194-.1434a.0325.0325 0 01.019-.0587l.2413-.0018.0763-.229a.0325.0325 0 01.0617 0zM8.4035 6.6346l.0763.229.2413.0018a.0325.0325 0 01.019.0587l-.194.1433.0728.23a.0325.0325 0 01-.05.0363l-.1962-.1403-.1963.1403a.0325.0325 0 01-.05-.0362l.0728-.23-.194-.1434a.0325.0325 0 01.019-.0587l.2413-.0019.0763-.2289a.0325.0325 0 01.0617 0zM8.4035 7.832l.0763.229.2413.0018a.0325.0325 0 01.019.0587l-.194.1433.0728.23a.0325.0325 0 01-.05.0363l-.1962-.1403-.1963.1403a.0325.0325 0 01-.05-.0362l.0728-.23-.194-.1434a.0325.0325 0 01.019-.0587l.2413-.0018.0763-.229a.0325.0325 0 01.0617 0zM8.4035 9.0295l.0763.2289.2413.0018a.0325.0325 0 01.019.0587l-.194.1433.0728.23a.0325.0325 0 01-.05.0363l-.1962-.1403-.1963.1403a.0325.0325 0 01-.05-.0362l.0728-.23-.194-.1434a.0325.0325 0 01.019-.0587l.2413-.0018.0763-.229a.0325.0325 0 01.0617 0z" fill="#F5F5F5"/></g><defs><clipPath id="clip0"><path fill="#fff" transform="translate(-.0002)" d="M0 0h20v20H0z"/></clipPath></defs></svg>